{
  "accessors": [
    {
      "bufferView": 1,
      "componentType": 5126,
      "count": 107,
      "max": [
        -19.86400032043457,
        -46.249000549316406,
        22.750999450683594
      ],
      "min": [
        -28.045000076293945,
        -62.64099884033203,
        6.359000205993652
      ],
      "type": "VEC3"
    },
    {
      "bufferView": 1,
      "byteOffset": 1284,
      "componentType": 5126,
      "count": 107,
      "max": [
        1.0,
        0.7071081399917603,
        0.7071077227592468
      ],
      "min": [
        -1.0,
        -0.7073384523391724,
        -0.707338273525238
      ],
      "type": "VEC3"
    },
    {
      "bufferView": 0,
      "componentType": 5125,
      "count": 318,
      "type": "SCALAR"
    },
    {
      "bufferView": 1,
      "byteOffset": 2568,
      "componentType": 5126,
      "count": 300,
      "max": [
        28.413000106811523,
        -67.0,
        -2.690999984741211
      ],
      "min": [
        -55.0,
        -125.0,
        -81.30899810791016
      ],
      "type": "VEC3"
    },
    {
      "bufferView": 1,
      "byteOffset": 6168,
      "componentType": 5126,
      "count": 300,
      "max": [
        1.0,
        0.9896053671836853,
        0.9856352210044861
      ],
      "min": [
        -1.0,
        -0.8851640224456787,
        -0.9856356382369995
      ],
      "type": "VEC3"
    },
    {
      "bufferView": 0,
      "byteOffset": 1272,
      "componentType": 5125,
      "count": 540,
      "type": "SCALAR"
    },
    {
      "bufferView": 1,
      "byteOffset": 9768,
      "componentType": 5126,
      "count": 67,
      "max": [
        -20.954999923706055,
        -8.130000114440918,
        60.869998931884766
      ],
      "min": [
        -26.954999923706055,
        -51.26350021362305,
        17.736499786376953
      ],
      "type": "VEC3"
    },
    {
      "bufferView": 1,
      "byteOffset": 10572,
      "componentType": 5126,
      "count": 67,
      "max": [
        0.9987190365791321,
        0.7073490023612976,
        0.7073489427566528
      ],
      "min": [
        -0.9987004995346069,
        -0.7070351839065552,
        -0.7065473198890686
      ],
      "type": "VEC3"
    },
    {
      "bufferView": 0,
      "byteOffset": 3432,
      "componentType": 5125,
      "count": 198,
      "type": "SCALAR"
    }
  ],
  "asset": {
    "extras": {
      "author": "Kristenmontesano (https://sketchfab.com/Kristenmontesano)",
      "license": "CC-BY-4.0 (http://creativecommons.org/licenses/by/4.0/)",
      "source": "https://sketchfab.com/3d-models/magic-wand-v1-92a94ab506704e2fb470dfd2c9857c67",
      "title": "Magic Wand V1"
    },
    "generator": "Sketchfab-12.68.0",
    "version": "2.0"
  },
  "bufferViews": [
    {
      "buffer": 0,
      "byteLength": 4224,
      "name": "floatBufferViews",
      "target": 34963
    },
    {
      "buffer": 0,
      "byteLength": 11376,
      "byteOffset": 4224,
      "byteStride": 12,
      "name": "floatBufferViews",
      "target": 34962
    }
  ],
  "buffers": [
    {
      "byteLength": 15600,
      "uri": "scene.bin"
    }
  ],
  "materials": [
    {
      "doubleSided": true,
      "name": "color_16448250",
      "pbrMetallicRoughness": {
        "baseColorFactor": [
          0.980392,
          0.980392,
          0.980392,
          1.0
        ],
        "metallicFactor": 0.0,
        "roughnessFactor": 0.0
      }
    },
    {
      "doubleSided": true,
      "emissiveFactor": [
        1.0,
        0.49107093704067134,
        0.0
      ],
      "name": "color_16768282",
      "pbrMetallicRoughness": {
        "baseColorFactor": [
          1.0,
          0.6115281503509267,
          0.019708368943048008,
          1.0
        ],
        "metallicFactor": 0.0
      }
    },
    {
      "doubleSided": true,
      "name": "color_2829873",
      "pbrMetallicRoughness": {
        "baseColorFactor": [
          0.012518225358363446,
          0.012518225358363446,
          0.012518225358363446,
          1.0
        ],
        "metallicFactor": 0.9745377548352577,
        "roughnessFactor": 0.0
      }
    }
  ],
  "meshes": [
    {
      "name": "Object_0",
      "primitives": [
        {
          "attributes": {
            "NORMAL": 1,
            "POSITION": 0
          },
          "indices": 2,
          "material": 0,
          "mode": 4
        }
      ]
    },
    {
      "name": "Object_1",
      "primitives": [
        {
          "attributes": {
            "NORMAL": 4,
            "POSITION": 3
          },
          "indices": 5,
          "material": 1,
          "mode": 4
        }
      ]
    },
    {
      "name": "Object_2",
      "primitives": [
        {
          "attributes": {
            "NORMAL": 7,
            "POSITION": 6
          },
          "indices": 8,
          "material": 2,
          "mode": 4
        }
      ]
    }
  ],
  "nodes": [
    {
      "children": [
        1
      ],
      "matrix": [
        1.886735072385501e-05,
        1.677448728466438e-05,
        -0.0036255224236295402,
        0.0,
        8.729385581132483e-08,
        -0.0036255714790601745,
        -1.6774259363300956e-05,
        0.0,
        -0.003625561322208898,
        -6.8387119652299395e-18,
        -1.88675516323161e-05,
        0.0,
        -23.443017959594727,
        -76.72415924072267,
        52.91159820556639,
        1.0
      ],
      "name": "Sketchfab_model"
    },
    {
      "children": [
        2,
        3,
        4
      ],
      "name": "tinker.obj.cleaner.materialmerger.gles"
    },
    {
      "mesh": 0,
      "name": "Object_2"
    },
    {
      "mesh": 1,
      "name": "Object_3"
    },
    {
      "mesh": 2,
      "name": "Object_4"
    }
  ],
  "scene": 0,
  "scenes": [
    {
      "name": "Sketchfab_Scene",
      "nodes": [
        0
      ]
    }
  ]
}
